<svg width="70" height="70" viewBox="0 0 70 70" fill="none" xmlns="http://www.w3.org/2000/svg">
<rect width="70" height="70" fill="#DC0B35"/>
<path d="M22.172 39.3001C22.0027 38.875 21.7608 38.5109 21.4463 38.2134C21.1318 37.9159 20.7568 37.6912 20.3213 37.5395C19.8859 37.3878 19.396 37.333 18.8577 37.333H12.9548V50.2037H14.0979V45.5534H18.8517C19.39 45.5534 19.8798 45.4743 20.3153 45.3226C20.7508 45.1708 21.1257 44.9462 21.4402 44.6487C21.7547 44.3512 21.9967 43.987 22.1661 43.5619C22.3354 43.1371 22.4743 42.5177 22.4743 41.7224C22.4865 40.9697 22.3414 39.7312 22.172 39.3001ZM20.5391 43.7684C20.0431 44.1751 19.4021 44.3756 18.6037 44.3756H14.0979V38.5168H18.6037C19.4021 38.5168 20.0431 38.6991 20.5391 39.0997C21.035 39.5066 21.2769 40.6235 21.2769 41.4615C21.283 42.2931 21.035 43.3617 20.5391 43.7684Z" fill="white"/>
<path d="M26.2245 20.6314V33.5083H25.0813V20.6314H26.2245Z" fill="white"/>
<path d="M56.0957 37.333V41.6739C56.0957 42.4754 55.8961 43.1189 55.4909 43.6166C55.1097 44.0841 54.5351 44.333 53.7793 44.3574H51.0153C50.2532 44.333 49.6848 44.0841 49.3037 43.6166C48.8985 43.1189 48.6989 42.4754 48.6989 41.6739V37.333H47.5256V41.9533C47.5256 42.4935 47.6042 42.9853 47.7553 43.4224C47.9065 43.8594 48.1305 44.2358 48.4268 44.5517C48.7231 44.8673 49.0859 45.1101 49.5093 45.28C49.8964 45.432 50.338 45.5168 50.8218 45.529H51.8135V50.1978H52.987V45.5352H53.9789C54.4627 45.523 54.8982 45.438 55.2912 45.2862C55.7145 45.1161 56.0776 44.8733 56.3739 44.5577C56.6703 44.242 56.8939 43.8656 57.0452 43.4284C57.1965 42.9913 57.2751 42.4995 57.2751 41.9592V37.339H56.0957V37.333Z" fill="white"/>
<path d="M14.6423 22.5741C15.0838 22.1188 15.7309 21.8092 16.7288 21.8092H20.7629V20.6314H16.7288C16.1724 20.6435 15.6765 20.7043 15.2289 20.856C14.739 21.0199 14.3277 21.2628 13.983 21.5724C13.6443 21.882 13.3843 22.2525 13.2149 22.6895C13.0395 23.1206 12.9548 23.6062 12.9548 24.1345V33.5083H14.1282V28.8274H20.0371V27.6496H14.1282V24.5775C14.1342 23.6549 14.231 22.9992 14.6423 22.5741Z" fill="white"/>
<path d="M26.5994 48.261C27.0408 48.7165 27.688 49.0259 28.6859 49.0259H32.236V50.2037H28.6859C28.1294 50.1918 27.6335 50.1067 27.1861 49.955C26.6961 49.791 26.2849 49.548 25.94 49.2386C25.6015 48.9289 25.3414 48.5585 25.172 48.1215C24.9967 47.6904 24.9119 47.2046 24.9119 46.6765V37.3087H26.0853V45.4258C26.0913 46.3427 26.188 47.8421 26.5994 48.261Z" fill="white"/>
<path d="M44.4047 39.4397C44.2534 39.0026 44.0297 38.6263 43.7334 38.3106C43.437 37.9947 43.074 37.7519 42.6507 37.582C42.2636 37.4303 41.8222 37.3452 41.3383 37.333H38.2537C37.7699 37.3452 37.3344 37.4303 36.9414 37.582C36.5181 37.7519 36.155 37.9947 35.8587 38.3106C35.5623 38.6263 35.3387 39.0026 35.1874 39.4397C35.0361 39.8767 34.9575 40.3685 34.9575 40.909V50.2037H36.131V45.523H43.4611V50.2037H44.6345V40.909C44.6345 40.3685 44.5559 39.8829 44.4047 39.4397ZM36.131 44.3452V41.164C36.131 40.3625 36.3306 39.719 36.7358 39.2213C37.1167 38.7536 37.6913 38.5049 38.4474 38.4805H41.1328C41.8948 38.5049 42.4632 38.7536 42.8443 39.2213C43.2495 39.719 43.4489 40.3625 43.4489 41.164V44.3452H36.131Z" fill="white"/>
<path d="M41.4474 22.7442C41.2961 22.307 41.0724 21.9306 40.7761 21.6149C40.4798 21.2992 40.1167 21.0564 39.6934 20.8864C39.3063 20.7346 38.8709 20.6496 38.387 20.6375H32.1091V33.5083H33.2826V21.7788H38.1693C38.9314 21.8031 39.5 22.052 39.8809 22.5196C40.2861 23.0174 40.4857 23.6609 40.4857 24.4623V33.5021H41.6651V24.2134C41.6711 23.6731 41.5984 23.1813 41.4474 22.7442Z" fill="white"/>
<path d="M56.8577 22.7442C56.7065 22.307 56.4828 21.9306 56.1864 21.6149C55.8901 21.2992 55.5271 21.0564 55.1038 20.8864C54.7167 20.7346 54.2812 20.6496 53.7974 20.6375H47.5256V33.5083H48.6989V21.7788H53.5856C54.3477 21.8031 54.9163 22.052 55.2974 22.5196C55.7026 23.0174 55.902 23.6609 55.902 24.4623V33.5021H57.0814V24.2134C57.0876 23.6731 57.009 23.1813 56.8577 22.7442Z" fill="white"/>
</svg>
