<svg width="14" height="15" viewBox="0 0 14 15" fill="none" xmlns="http://www.w3.org/2000/svg">
<path d="M13.1209 1.5H0.879052C0.39553 1.5 0 1.87428 0 2.33182C0 2.78937 0.39553 3.16364 0.879052 3.16364H13.1209C13.6045 3.16364 14 2.78937 14 2.33182C14 1.87428 13.6045 1.5 13.1209 1.5Z" fill="#3F53BE"/>
<path d="M13.1209 6.6786H0.879052C0.39553 6.6786 0 7.05288 0 7.51042C0 7.96797 0.39553 8.34225 0.879052 8.34225H13.1209C13.6045 8.34225 14 7.96797 14 7.51042C14 7.05303 13.6045 6.6786 13.1209 6.6786Z" fill="#3F53BE"/>
<path d="M0.879052 11.8364H13.1209C13.6045 11.8364 14 12.2108 14 12.6682C14 13.1257 13.6045 13.5 13.1209 13.5H0.879052C0.39553 13.5 0 13.1257 0 12.6682C0 12.2107 0.39553 11.8364 0.879052 11.8364Z" fill="#3F53BE"/>
</svg>
